<svg width="24" height="19" viewBox="0 0 24 19" fill="none" xmlns="http://www.w3.org/2000/svg">
<path d="M21.7767 5.63112L20.3417 7.78946C21.0337 9.16971 21.3725 10.7001 21.3277 12.2435C21.2829 13.7868 20.8559 15.295 20.085 16.6328H3.915C2.91303 14.8946 2.49785 12.8798 2.731 10.887C2.96415 8.89431 3.83323 7.02975 5.20939 5.56979C6.58556 4.10983 8.39555 3.13217 10.371 2.78177C12.3465 2.43137 14.3823 2.72686 16.1767 3.62446L18.335 2.18946C16.1376 0.780377 13.531 0.148964 10.9324 0.396217C8.3337 0.64347 5.89302 1.7551 4.00074 3.55331C2.10847 5.35151 0.873923 7.73237 0.494588 10.3151C0.115253 12.8978 0.613044 15.5331 1.90833 17.7995C2.11193 18.1521 2.40427 18.4453 2.7563 18.65C3.10834 18.8547 3.5078 18.9637 3.915 18.9661H20.0733C20.4845 18.9678 20.8888 18.8607 21.2453 18.6558C21.6017 18.451 21.8978 18.1555 22.1033 17.7995C23.1783 15.9374 23.7177 13.8144 23.6621 11.6651C23.6066 9.5157 22.9581 7.4235 21.7883 5.61946L21.7767 5.63112ZM10.355 13.6111C10.5717 13.8281 10.829 14.0002 11.1123 14.1176C11.3956 14.235 11.6992 14.2955 12.0058 14.2955C12.3125 14.2955 12.6161 14.235 12.8994 14.1176C13.1826 14.0002 13.44 13.8281 13.6567 13.6111L20.26 3.70612L10.355 10.3095C10.1381 10.5262 9.96595 10.7835 9.84853 11.0668C9.73111 11.35 9.67067 11.6537 9.67067 11.9603C9.67067 12.2669 9.73111 12.5706 9.84853 12.8538C9.96595 13.1371 10.1381 13.3944 10.355 13.6111V13.6111Z" fill="#0036C3"/>
</svg>
